<?xml version="1.0" encoding="utf-8"?>
<!-- Generator: Adobe Illustrator 22.1.0, SVG Export Plug-In . SVG Version: 6.00 Build 0)  -->
<svg version="1.1" id="Layer_1" xmlns="http://www.w3.org/2000/svg" xmlns:xlink="http://www.w3.org/1999/xlink" x="0px" y="0px"
	 viewBox="0 0 203.8 42.9" style="enable-background:new 0 0 203.8 42.9;" xml:space="preserve">
<style type="text/css">
	.st0{fill:#660099;}
	.st1{enable-background:new    ;}
	.st2{fill: #333333;}
</style>
<path class="st0" d="M60.4,5.3c1.5,0,3,0.3,4.4,0.9c2.7,1.1,4.8,3.3,6,6c0.6,1.4,0.9,2.9,0.9,4.4v10.8h-2.2V16.6
	c0-1.2-0.2-2.4-0.7-3.5c-0.9-2.2-2.6-3.9-4.8-4.8c-1.1-0.5-2.3-0.7-3.5-0.7c-1.2,0-2.4,0.2-3.5,0.7c-1.1,0.5-2,1.1-2.9,1.9
	c-1.7,1.7-2.6,4-2.6,6.4v10.8h-2.2V16.6c0-1.5,0.3-3,0.9-4.4c0.6-1.3,1.4-2.5,2.4-3.6c1-1,2.2-1.9,3.6-2.4
	C57.4,5.6,58.8,5.3,60.4,5.3"/>
<path class="st0" d="M106.6,27.3c-1.1,0-2.2-0.2-3.3-0.6c-2-0.9-3.6-2.5-4.5-4.5c-0.4-1-0.7-2.2-0.7-3.3V5.3h2.3v13.6
	c0,0.8,0.2,1.7,0.5,2.4c1.3,3.2,5,4.6,8.1,3.3c0.7-0.3,1.4-0.7,1.9-1.3c0.6-0.6,1-1.3,1.3-2c0.3-0.8,0.5-1.6,0.5-2.4V5.3h2.2v13.6
	c0,0.8,0.2,1.7,0.5,2.4c0.3,0.7,0.8,1.4,1.3,2c2.4,2.4,6.4,2.4,8.8,0c0.6-0.6,1-1.3,1.3-2c0.3-0.8,0.5-1.6,0.5-2.4V5.3h2.2v13.6
	c0,1.1-0.2,2.2-0.6,3.3c-0.4,1-1,1.9-1.8,2.7c-0.8,0.8-1.7,1.4-2.7,1.8c-2.5,1-5.2,0.9-7.6-0.5c-1.3-0.7-2.3-1.8-3.1-3.1
	c-0.7,1.3-1.8,2.3-3,3.1C109.6,27,108.1,27.3,106.6,27.3"/>
<path class="st0" d="M143.2,5.3c1.5,0,3,0.3,4.4,0.9c2.7,1.1,4.8,3.3,6,6c1,2.5,1.2,5.2,0.4,7.7c-0.3,1-0.8,2-1.4,2.9
	c-0.6,0.9-1.3,1.7-2.1,2.4c-0.8,0.7-1.7,1.3-2.7,1.7c3.5,2.2,4.8,6.6,3.2,10.4c-0.4,1-1,1.9-1.8,2.7c-0.8,0.8-1.7,1.4-2.7,1.8
	c-1,0.4-2.2,0.6-3.3,0.6v-2.2c0.8,0,1.6-0.2,2.4-0.5c1.5-0.6,2.6-1.8,3.3-3.3c0.6-1.6,0.6-3.3,0-4.8c-0.6-1.5-1.8-2.6-3.3-3.3
	c-0.8-0.3-1.6-0.5-2.4-0.5c-1.5,0-3-0.3-4.4-0.9c-2.7-1.2-4.8-3.3-6-6c-0.6-1.4-0.9-2.9-0.9-4.4c0-1.5,0.3-3,0.9-4.4
	c1.1-2.7,3.3-4.8,6-6C140.2,5.6,141.6,5.3,143.2,5.3 M143.2,7.6c-1.2,0-2.4,0.2-3.5,0.7c-1.1,0.5-2,1.1-2.9,1.9
	c-1.7,1.7-2.6,4-2.6,6.4c0,1.2,0.2,2.4,0.7,3.5c0.9,2.2,2.6,3.9,4.8,4.8c1.1,0.5,2.3,0.7,3.5,0.7c2.4,0,4.7-1,6.4-2.6
	c0.8-0.8,1.5-1.8,1.9-2.9c0.5-1.1,0.7-2.3,0.7-3.5c0-1.2-0.2-2.4-0.7-3.5c-0.9-2.2-2.6-3.9-4.8-4.8C145.6,7.8,144.4,7.6,143.2,7.6"
	/>
<path class="st0" d="M191.7,5.3c1.5,0,3,0.3,4.4,0.9c2.7,1.2,4.8,3.3,6,6c0.6,1.4,0.9,2.9,0.9,4.4v10.8h-2.2V16.5
	c0-1.2-0.3-2.4-0.7-3.5c-0.4-1.1-1.1-2-1.9-2.9c-0.8-0.8-1.8-1.5-2.9-1.9c-1.1-0.5-2.3-0.7-3.5-0.7c-1.2,0-2.4,0.2-3.5,0.7
	c-1.1,0.5-2,1.1-2.9,1.9c-1.7,1.7-2.6,4-2.6,6.4v10.8h-2.2V16.5c0-1.5,0.3-3,0.9-4.4c0.6-1.3,1.4-2.5,2.4-3.6s2.2-1.9,3.6-2.4
	C188.7,5.6,190.2,5.3,191.7,5.3"/>
<path class="st0" d="M84.9,27.3c-1.5,0-2.9-0.3-4.3-0.9c-2.6-1.1-4.8-3.2-5.9-5.9c-0.6-1.3-0.9-2.8-0.9-4.3c0-1.5,0.3-2.9,0.9-4.3
	c1.1-2.7,3.2-4.8,5.9-5.9c1.3-0.6,2.8-0.9,4.3-0.9c1.5,0,2.9,0.3,4.3,0.9c2.6,1.1,4.8,3.2,5.9,5.9c0.6,1.4,0.9,2.8,0.9,4.3v0.6
	c0,0.2,0,0.4,0,0.6H76.1c0.1,1.1,0.5,2.1,1,3c0.5,0.9,1.2,1.7,1.9,2.5c0.8,0.7,1.7,1.3,2.7,1.6c1,0.4,2.1,0.6,3.2,0.6
	c0.8,0,1.6-0.2,2.3-0.5s1.4-0.7,1.9-1.3l1.6,1.6c-0.7,0.7-1.6,1.3-2.6,1.8C87.1,27.1,86,27.3,84.9,27.3 M93.6,15.2
	c-0.1-1.1-0.5-2.1-1-3c-0.5-0.9-1.2-1.7-1.9-2.5c-1.6-1.5-3.7-2.2-5.8-2.2c-1.1,0-2.2,0.2-3.2,0.6c-1,0.4-1.9,1-2.7,1.6
	c-0.8,0.7-1.4,1.5-1.9,2.5c-0.5,1-0.8,2-1,3L93.6,15.2z"/>
<polygon class="st0" points="176.6,15.6 156.9,15.6 157.6,13.8 177.3,13.7 "/>
<polygon class="st0" points="175,19.4 156.6,19.4 157.9,17.5 175.8,17.5 "/>
<path class="st0" d="M172.4,27.3c-1.5,0-2.9-0.3-4.3-0.9c-2.6-1.1-4.7-3.2-5.8-5.8c-0.6-1.3-0.9-2.8-0.9-4.3c0-1.5,0.3-2.9,0.9-4.3
	c1.1-2.6,3.2-4.8,5.8-5.9c1.3-0.6,2.8-0.9,4.3-0.9c1.1,0,2.2,0.2,3.2,0.6c1,0.4,1.9,1,2.6,1.8l-1.6,1.6c-0.6-0.6-1.2-1-1.9-1.3
	s-1.6-0.5-2.4-0.5c-1.2,0-2.3,0.2-3.4,0.7c-1,0.4-2,1.1-2.8,1.9c-1.6,1.6-2.6,3.9-2.6,6.2c0,1.2,0.2,2.3,0.7,3.4
	c0.9,2.1,2.6,3.8,4.7,4.7c1.1,0.5,2.2,0.7,3.4,0.7c0.8,0,1.6-0.2,2.4-0.5c0.7-0.3,1.4-0.7,1.9-1.3l1.6,1.6c-0.8,0.7-1.6,1.3-2.6,1.8
	C174.6,27.1,173.5,27.3,172.4,27.3z"/>
<g>
	<path class="st2" d="M92.7,36.9h1v5.5h-1V36.9z"/>
	<path class="st2" d="M99.4,42.4c-0.2-0.3-0.4-0.6-0.6-1c-0.2-0.3-0.4-0.7-0.7-1c-0.3-0.3-0.5-0.7-0.7-1c-0.3-0.3-0.5-0.6-0.7-0.9
		v3.9h-1v-5.4h0.8c0.2,0.2,0.4,0.5,0.7,0.8s0.5,0.6,0.7,1c0.3,0.3,0.5,0.6,0.7,1c0.2,0.3,0.4,0.6,0.6,0.9v-3.7h1v5.5L99.4,42.4
		L99.4,42.4z"/>
	<path class="st2" d="M104.8,37.7c-0.6,0-1,0.2-1.3,0.5c-0.3,0.3-0.4,0.8-0.4,1.5c0,0.3,0,0.6,0.1,0.8c0.1,0.3,0.2,0.5,0.3,0.6
		s0.3,0.3,0.5,0.4c0.2,0.1,0.4,0.1,0.7,0.1c0.2,0,0.3,0,0.4,0c0.1,0,0.2,0,0.3,0v-2h1v2.6c-0.1,0-0.4,0.1-0.7,0.2
		c-0.3,0-0.7,0.1-1.1,0.1c-0.4,0-0.8,0-1.1-0.2c-0.3-0.1-0.6-0.3-0.8-0.6c-0.2-0.3-0.4-0.6-0.5-0.9c-0.1-0.3-0.2-0.8-0.2-1.2
		c0-0.5,0.1-0.9,0.2-1.2c0.1-0.3,0.3-0.6,0.6-0.9c0.3-0.3,0.5-0.4,0.9-0.6c0.3-0.1,0.7-0.2,1-0.2c0.3,0,0.5,0,0.7,0
		c0.2,0,0.4,0.1,0.5,0.1c0.1,0,0.3,0.1,0.3,0.1c0.1,0,0.2,0.1,0.2,0.1l-0.3,0.8c-0.2-0.1-0.3-0.2-0.6-0.3
		C105.3,37.7,105,37.7,104.8,37.7z"/>
	<path class="st2" d="M108.2,42.4v-5.5h3.5v0.9h-2.5v1.3h2.2V40h-2.2v1.6h2.7v0.9H108.2z"/>
	<path class="st2" d="M117.2,42.4c-0.2-0.3-0.4-0.6-0.6-1c-0.2-0.3-0.4-0.7-0.7-1c-0.3-0.3-0.5-0.7-0.7-1c-0.3-0.3-0.5-0.6-0.7-0.9
		v3.9h-1v-5.4h0.8c0.2,0.2,0.4,0.5,0.7,0.8c0.3,0.3,0.5,0.6,0.7,1c0.3,0.3,0.5,0.6,0.7,1c0.2,0.3,0.4,0.6,0.6,0.9v-3.7h1v5.5
		L117.2,42.4L117.2,42.4z"/>
	<path class="st2" d="M122.2,42.6c-0.4,0-0.7,0-1-0.2c-0.3-0.1-0.5-0.3-0.7-0.5c-0.2-0.2-0.3-0.4-0.4-0.7c-0.1-0.3-0.1-0.6-0.1-0.9
		v-3.5h1v3.3c0,0.3,0,0.5,0.1,0.6s0.1,0.3,0.3,0.4c0.1,0.1,0.2,0.2,0.3,0.3c0.1,0,0.3,0.1,0.5,0.1c0.2,0,0.3,0,0.5-0.1
		c0.1,0,0.3-0.1,0.4-0.3c0.1-0.1,0.2-0.3,0.3-0.4c0-0.2,0.1-0.4,0.1-0.6v-3.3h1v3.5c0,0.3,0,0.6-0.1,0.9c-0.1,0.3-0.2,0.5-0.4,0.7
		c-0.2,0.2-0.4,0.3-0.7,0.5C122.8,42.5,122.5,42.6,122.2,42.6z"/>
	<path class="st2" d="M126.2,36.9h1v5.5h-1V36.9z"/>
</g>
<g>
	<path class="st2" d="M132.8,36.9v0.9h-1.7v4.6h-1v-4.6h-1.7v-0.9H132.8z"/>
</g>
<g>
	<path class="st2" d="M136.3,39.4c0.3-0.4,0.5-0.8,0.7-1.2c0.2-0.4,0.4-0.8,0.6-1.2h1.1c-0.3,0.6-0.6,1.1-0.9,1.7
		c-0.3,0.6-0.6,1.1-1,1.7v2.2h-1v-2.2c-0.3-0.6-0.7-1.1-1-1.7c-0.3-0.6-0.6-1.1-0.9-1.7h1.2c0.2,0.4,0.4,0.8,0.6,1.2
		C135.8,38.5,136,39,136.3,39.4z"/>
</g>
<g class="st1">
	<path class="st2" d="M157.6,36.9c0.8,0,1.4,0.1,1.8,0.4c0.4,0.3,0.6,0.7,0.6,1.3c0,0.7-0.4,1.3-1.1,1.5c0.1,0.1,0.2,0.3,0.3,0.4
		c0.1,0.2,0.3,0.3,0.4,0.6c0.1,0.2,0.3,0.4,0.4,0.6c0.1,0.2,0.2,0.4,0.3,0.6h-1.1c-0.1-0.2-0.2-0.4-0.3-0.6
		c-0.1-0.2-0.2-0.4-0.3-0.6c-0.1-0.2-0.2-0.3-0.3-0.5c-0.1-0.2-0.2-0.3-0.3-0.4c-0.1,0-0.1,0-0.2,0c0,0-0.1,0-0.1,0h-0.5v2h-1V37
		c0.3,0,0.5-0.1,0.8-0.1C157.1,36.9,157.4,36.9,157.6,36.9z M157.7,37.7c-0.2,0-0.4,0-0.6,0v1.8h0.4c0.3,0,0.5,0,0.6,0
		s0.3-0.1,0.5-0.1c0.1-0.1,0.2-0.2,0.3-0.3c0-0.1,0.1-0.3,0.1-0.4s0-0.3-0.1-0.4c0-0.1-0.2-0.2-0.3-0.3c-0.1-0.1-0.3-0.1-0.4-0.1
		C158,37.7,157.9,37.7,157.7,37.7z"/>
	<path class="st2" d="M161.8,42.4v-5.5h3.5v0.9h-2.5v1.3h2.2v0.8h-2.2v1.6h2.7v0.9H161.8z"/>
	<path class="st2" d="M171.7,39.7c0,0.5-0.1,0.9-0.2,1.3c-0.1,0.3-0.3,0.6-0.6,0.9c-0.3,0.2-0.6,0.4-1,0.5c-0.4,0.1-0.8,0.2-1.3,0.2
		c-0.2,0-0.5,0-0.7,0c-0.3,0-0.6,0-0.8-0.1V37c0.3,0,0.5-0.1,0.8-0.1c0.3,0,0.5,0,0.8,0c0.5,0,0.9,0,1.3,0.2c0.4,0.1,0.7,0.3,1,0.5
		c0.3,0.2,0.5,0.5,0.6,0.9C171.7,38.8,171.7,39.1,171.7,39.7z M168.1,41.6c0,0,0.1,0,0.2,0s0.2,0,0.4,0c0.7,0,1.2-0.2,1.5-0.5
		c0.3-0.3,0.5-0.8,0.5-1.4c0-0.6-0.2-1.1-0.5-1.4c-0.3-0.3-0.8-0.5-1.5-0.5c-0.3,0-0.5,0-0.6,0L168.1,41.6L168.1,41.6z"/>
	<path class="st2" d="M173.5,42.4v-5.5h3.5v0.9h-2.5v1.3h2.2v0.8h-2.2v1.6h2.7v0.9H173.5z"/>
	<path class="st2" d="M178.7,42.4v-5.5h3.5v0.9h-2.5v1.4h2.2v0.9h-2.2v2.3H178.7z"/>
	<path class="st2" d="M183.7,36.9h1v5.5h-1V36.9z"/>
	<path class="st2" d="M190.4,42.4c-0.2-0.3-0.4-0.6-0.6-1c-0.2-0.3-0.4-0.7-0.7-1c-0.3-0.3-0.5-0.7-0.7-1c-0.3-0.3-0.5-0.6-0.7-0.9
		v4h-1v-5.5h0.8c0.2,0.2,0.4,0.5,0.7,0.8s0.5,0.6,0.7,1c0.3,0.3,0.5,0.6,0.7,1c0.2,0.3,0.4,0.6,0.6,0.9v-3.7h1v5.5H190.4z"/>
	<path class="st2" d="M193.2,42.4v-5.5h3.5v0.9h-2.5v1.3h2.2v0.8h-2.2v1.6h2.7v0.9H193.2z"/>
	<path class="st2" d="M203.1,39.7c0,0.5-0.1,0.9-0.2,1.3c-0.1,0.3-0.3,0.6-0.6,0.9c-0.3,0.2-0.6,0.4-1,0.5c-0.4,0.1-0.8,0.2-1.3,0.2
		c-0.2,0-0.5,0-0.7,0c-0.3,0-0.6,0-0.8-0.1V37c0.3,0,0.5-0.1,0.8-0.1c0.3,0,0.5,0,0.8,0c0.5,0,0.9,0,1.3,0.2c0.4,0.1,0.7,0.3,1,0.5
		c0.3,0.2,0.5,0.5,0.6,0.9C203.1,38.8,203.1,39.1,203.1,39.7z M199.5,41.6c0,0,0.1,0,0.2,0s0.2,0,0.4,0c0.7,0,1.2-0.2,1.5-0.5
		c0.3-0.3,0.5-0.8,0.5-1.4c0-0.6-0.2-1.1-0.5-1.4c-0.3-0.3-0.8-0.5-1.5-0.5c-0.3,0-0.5,0-0.6,0L199.5,41.6L199.5,41.6z"/>
</g>
<path class="st0" d="M23.3,0.9c-3.5,0-10.5,1.3-22.8,30.9C4.6,23.7,17.1,4.3,23.3,5c0.7,0.1,4.9,1.1,5.1,6.7L29,12
	C31.4,2,24.3,0.9,23.3,0.9z"/>
<path class="st0" d="M20.9,31.9c3.5,0,10.5-1.3,22.8-30.9C39.7,9.2,27.2,28.6,21,27.8c-0.7-0.1-4.9-1.1-5.1-6.7l-0.6-0.2
	C12.9,30.8,19.9,31.9,20.9,31.9z"/>
</svg>
